<svg width="172" height="52" viewBox="0 0 172 52" fill="none" xmlns="http://www.w3.org/2000/svg">
<path d="M29.0733 47.6263L18.1678 36.4343C21.8097 32.7326 25.4813 29.0013 29.1826 25.2403C29.1826 27.2259 29.1783 29.3305 29.1826 31.435C29.187 32.9758 29.1927 32.9633 30.681 32.9416C31.6483 32.9276 32.617 32.9286 33.5834 32.9739C34.2329 33.0037 34.4765 32.7543 34.4746 32.0831C34.4601 26.8407 34.4613 21.5982 34.478 16.3555C34.4813 15.499 33.969 15.5481 33.411 15.5486C29.4391 15.5518 25.4674 15.5518 21.4958 15.5486C20.5612 15.5486 19.6262 15.5726 18.6926 15.5384C17.8611 15.5071 17.4561 15.8004 17.5072 16.7253C17.5635 17.7499 17.5476 18.7817 17.5072 19.8068C17.4744 20.6253 17.7373 20.9753 18.5949 20.9551C20.7548 20.907 22.9171 20.9387 25.3029 20.9387C25.0279 21.3201 24.9061 21.5406 24.7376 21.7139C21.7524 24.7954 18.8004 27.9188 15.7339 30.9155C14.9322 31.7003 13.8186 32.3508 12.7473 32.5964C11.0717 32.9816 9.87715 31.7427 9.82082 29.836C9.76593 27.9871 9.80059 26.1358 9.79963 24.2855C9.79963 21.6128 9.85115 18.9411 9.79 16.2674C9.69852 12.2682 12.5142 7.60748 17.8047 7.61904C23.3451 7.63252 28.8875 7.5367 34.4255 7.65226C38.9403 7.74855 42.1465 11.2273 42.1773 15.863C42.2134 21.0711 42.1263 26.2808 42.2091 31.488C42.2799 35.9273 38.5734 39.8956 33.8593 39.8561C31.9333 39.8427 31.6594 39.8528 30.4561 39.8422C29.511 39.834 29.1441 40.1527 29.1701 41.1504C29.2183 43.0671 29.1744 44.9873 29.159 46.906C29.159 47.153 29.1022 47.4 29.0733 47.6263Z" class="color-1"/>
<path d="M30.7623 39.8446H30.458C29.5129 39.8365 29.146 40.1552 29.172 41.1528C29.2201 43.0696 29.1763 44.9897 29.1609 46.9085C29.1609 47.1555 29.1022 47.4025 29.0733 47.6307L18.1677 36.4343C21.8097 32.7327 25.4813 29.0014 29.1826 25.2403C29.1826 27.226 29.1782 29.3305 29.1826 31.4351C29.1869 32.9758 29.1927 32.9633 30.6809 32.9416C31.6482 32.9277 32.617 32.9286 33.5833 32.9739C34.2328 33.0038 34.4765 32.7543 34.4745 32.0832C34.4607 27.0055 34.4607 21.9276 34.4745 16.8496C34.4745 16.6849 34.4745 16.5202 34.4745 16.3556C34.4745 16.3074 34.4745 16.2593 34.4697 16.2159L34.4601 16.0797V16.0532C34.4601 11.5205 29.8778 7.81986 24.1212 7.60464C27.5552 7.59019 30.9886 7.58056 34.4206 7.65279C38.9355 7.74908 42.1417 11.2278 42.1725 15.8635C42.2086 21.0717 42.1214 26.2813 42.2042 31.4885C42.275 35.9278 38.5686 39.8962 33.8544 39.8567C32.1085 39.8442 31.7238 39.8509 30.7623 39.8446Z" class="color-1"/>
<path d="M61.915 16.5156V35H58.1191V16.5156H61.915ZM67.6025 16.5156V19.499H52.5205V16.5156H67.6025ZM72.3125 24.2598V35H68.6562V21.2637H72.0967L72.3125 24.2598ZM76.4512 21.1748L76.3877 24.5645C76.21 24.5391 75.9941 24.5179 75.7402 24.501C75.4948 24.4756 75.2705 24.4629 75.0674 24.4629C74.5511 24.4629 74.1025 24.5306 73.7217 24.666C73.3493 24.793 73.0361 24.9834 72.7822 25.2373C72.5368 25.4912 72.3506 25.8001 72.2236 26.1641C72.1051 26.528 72.0374 26.9427 72.0205 27.4082L71.2842 27.1797C71.2842 26.291 71.373 25.4743 71.5508 24.7295C71.7285 23.9762 71.9867 23.3203 72.3252 22.7617C72.6722 22.2031 73.0954 21.7715 73.5947 21.4668C74.0941 21.1621 74.6654 21.0098 75.3086 21.0098C75.5117 21.0098 75.7191 21.0267 75.9307 21.0605C76.1423 21.0859 76.3158 21.124 76.4512 21.1748ZM85.1602 31.9023V25.7832C85.1602 25.3431 85.0882 24.9665 84.9443 24.6533C84.8005 24.3317 84.5762 24.082 84.2715 23.9043C83.9753 23.7266 83.5902 23.6377 83.1162 23.6377C82.71 23.6377 82.3587 23.7096 82.0625 23.8535C81.7663 23.9889 81.5378 24.1878 81.377 24.4502C81.2161 24.7041 81.1357 25.0046 81.1357 25.3516H77.4795C77.4795 24.7676 77.6149 24.2132 77.8857 23.6885C78.1566 23.1637 78.5501 22.7025 79.0664 22.3047C79.5827 21.8984 80.1963 21.5811 80.9072 21.3525C81.6266 21.124 82.4307 21.0098 83.3193 21.0098C84.3857 21.0098 85.3337 21.1875 86.1631 21.543C86.9925 21.8984 87.6442 22.4316 88.1182 23.1426C88.6006 23.8535 88.8418 24.7422 88.8418 25.8086V31.6865C88.8418 32.4398 88.8883 33.0576 88.9814 33.54C89.0745 34.014 89.21 34.4287 89.3877 34.7842V35H85.6934C85.5156 34.6276 85.3802 34.1621 85.2871 33.6035C85.2025 33.0365 85.1602 32.4694 85.1602 31.9023ZM85.6426 26.6338L85.668 28.7031H83.624C83.1416 28.7031 82.7227 28.7581 82.3672 28.8682C82.0117 28.9782 81.7197 29.1348 81.4912 29.3379C81.2627 29.5326 81.0934 29.7611 80.9834 30.0234C80.8818 30.2858 80.8311 30.5736 80.8311 30.8867C80.8311 31.1999 80.903 31.4834 81.0469 31.7373C81.1908 31.9827 81.3981 32.1774 81.6689 32.3213C81.9398 32.4567 82.2572 32.5244 82.6211 32.5244C83.1712 32.5244 83.6494 32.4144 84.0557 32.1943C84.4619 31.9743 84.7751 31.7035 84.9951 31.3818C85.2236 31.0602 85.3421 30.7555 85.3506 30.4678L86.3154 32.0166C86.18 32.3636 85.9938 32.7233 85.7568 33.0957C85.5283 33.4681 85.2363 33.8193 84.8809 34.1494C84.5254 34.471 84.098 34.7376 83.5986 34.9492C83.0993 35.1523 82.5068 35.2539 81.8213 35.2539C80.9495 35.2539 80.1582 35.0804 79.4473 34.7334C78.7448 34.3779 78.1862 33.8913 77.7715 33.2734C77.3652 32.6471 77.1621 31.9362 77.1621 31.1406C77.1621 30.4212 77.2975 29.7822 77.5684 29.2236C77.8392 28.665 78.237 28.1953 78.7617 27.8145C79.2949 27.4251 79.9593 27.1331 80.7549 26.9385C81.5505 26.7354 82.473 26.6338 83.5225 26.6338H85.6426ZM99.7725 32.0039V15.5H103.454V35H100.141L99.7725 32.0039ZM91.0889 28.2969V28.0303C91.0889 26.9808 91.2074 26.0286 91.4443 25.1738C91.6813 24.3105 92.0283 23.57 92.4854 22.9521C92.9424 22.3343 93.5052 21.8561 94.1738 21.5176C94.8424 21.179 95.6042 21.0098 96.459 21.0098C97.263 21.0098 97.9655 21.179 98.5664 21.5176C99.1758 21.8561 99.6921 22.3385 100.115 22.9648C100.547 23.5827 100.894 24.3148 101.156 25.1611C101.419 25.999 101.609 26.9173 101.728 27.916V28.5C101.609 29.4564 101.419 30.3451 101.156 31.166C100.894 31.987 100.547 32.7064 100.115 33.3242C99.6921 33.9336 99.1758 34.4076 98.5664 34.7461C97.957 35.0846 97.2461 35.2539 96.4336 35.2539C95.5788 35.2539 94.8171 35.0804 94.1484 34.7334C93.4883 34.3864 92.9297 33.8997 92.4727 33.2734C92.0241 32.6471 91.6813 31.9108 91.4443 31.0645C91.2074 30.2181 91.0889 29.2956 91.0889 28.2969ZM94.7451 28.0303V28.2969C94.7451 28.8639 94.7874 29.3929 94.8721 29.8838C94.9652 30.3747 95.1133 30.8105 95.3164 31.1914C95.528 31.5638 95.7988 31.8558 96.1289 32.0674C96.4674 32.2705 96.8779 32.3721 97.3604 32.3721C97.9867 32.3721 98.5029 32.2324 98.9092 31.9531C99.3154 31.6654 99.6243 31.2718 99.8359 30.7725C100.056 30.2731 100.183 29.6976 100.217 29.0459V27.3828C100.191 26.8496 100.115 26.3714 99.9883 25.9482C99.8698 25.5166 99.6921 25.1484 99.4551 24.8438C99.2266 24.5391 98.9388 24.3021 98.5918 24.1328C98.2533 23.9635 97.8512 23.8789 97.3857 23.8789C96.9118 23.8789 96.5055 23.9889 96.167 24.209C95.8285 24.4206 95.5534 24.7126 95.3418 25.085C95.1387 25.4574 94.9863 25.8975 94.8848 26.4053C94.7917 26.9046 94.7451 27.4463 94.7451 28.0303ZM114.423 32.0039V15.5H118.104V35H114.791L114.423 32.0039ZM105.739 28.2969V28.0303C105.739 26.9808 105.858 26.0286 106.095 25.1738C106.332 24.3105 106.679 23.57 107.136 22.9521C107.593 22.3343 108.156 21.8561 108.824 21.5176C109.493 21.179 110.255 21.0098 111.109 21.0098C111.913 21.0098 112.616 21.179 113.217 21.5176C113.826 21.8561 114.342 22.3385 114.766 22.9648C115.197 23.5827 115.544 24.3148 115.807 25.1611C116.069 25.999 116.259 26.9173 116.378 27.916V28.5C116.259 29.4564 116.069 30.3451 115.807 31.166C115.544 31.987 115.197 32.7064 114.766 33.3242C114.342 33.9336 113.826 34.4076 113.217 34.7461C112.607 35.0846 111.896 35.2539 111.084 35.2539C110.229 35.2539 109.467 35.0804 108.799 34.7334C108.139 34.3864 107.58 33.8997 107.123 33.2734C106.674 32.6471 106.332 31.9108 106.095 31.0645C105.858 30.2181 105.739 29.2956 105.739 28.2969ZM109.396 28.0303V28.2969C109.396 28.8639 109.438 29.3929 109.522 29.8838C109.616 30.3747 109.764 30.8105 109.967 31.1914C110.178 31.5638 110.449 31.8558 110.779 32.0674C111.118 32.2705 111.528 32.3721 112.011 32.3721C112.637 32.3721 113.153 32.2324 113.56 31.9531C113.966 31.6654 114.275 31.2718 114.486 30.7725C114.706 30.2731 114.833 29.6976 114.867 29.0459V27.3828C114.842 26.8496 114.766 26.3714 114.639 25.9482C114.52 25.5166 114.342 25.1484 114.105 24.8438C113.877 24.5391 113.589 24.3021 113.242 24.1328C112.904 23.9635 112.502 23.8789 112.036 23.8789C111.562 23.8789 111.156 23.9889 110.817 24.209C110.479 24.4206 110.204 24.7126 109.992 25.085C109.789 25.4574 109.637 25.8975 109.535 26.4053C109.442 26.9046 109.396 27.4463 109.396 28.0303ZM127.283 35.2539C126.217 35.2539 125.26 35.0846 124.414 34.7461C123.568 34.3991 122.848 33.9209 122.256 33.3115C121.672 32.7021 121.223 31.9954 120.91 31.1914C120.597 30.3789 120.44 29.5156 120.44 28.6016V28.0938C120.44 27.0527 120.589 26.1006 120.885 25.2373C121.181 24.374 121.604 23.625 122.154 22.9902C122.713 22.3555 123.39 21.8688 124.186 21.5303C124.981 21.1833 125.878 21.0098 126.877 21.0098C127.85 21.0098 128.714 21.1706 129.467 21.4922C130.22 21.8138 130.851 22.2708 131.358 22.8633C131.875 23.4557 132.264 24.1667 132.526 24.9961C132.789 25.8171 132.92 26.7311 132.92 27.7383V29.2617H122.002V26.8242H129.327V26.5449C129.327 26.0371 129.234 25.5843 129.048 25.1865C128.87 24.7803 128.599 24.4587 128.235 24.2217C127.871 23.9847 127.406 23.8662 126.839 23.8662C126.356 23.8662 125.942 23.972 125.595 24.1836C125.248 24.3952 124.964 24.6914 124.744 25.0723C124.533 25.4531 124.372 25.9017 124.262 26.418C124.16 26.9258 124.109 27.4844 124.109 28.0938V28.6016C124.109 29.1517 124.186 29.6595 124.338 30.125C124.499 30.5905 124.723 30.9925 125.011 31.3311C125.307 31.6696 125.662 31.932 126.077 32.1182C126.5 32.3044 126.979 32.3975 127.512 32.3975C128.172 32.3975 128.785 32.2705 129.353 32.0166C129.928 31.7542 130.423 31.3607 130.838 30.8359L132.615 32.7656C132.327 33.1803 131.934 33.5781 131.435 33.959C130.944 34.3398 130.351 34.653 129.657 34.8984C128.963 35.1354 128.172 35.2539 127.283 35.2539ZM138.658 24.2598V35H135.002V21.2637H138.442L138.658 24.2598ZM142.797 21.1748L142.733 24.5645C142.556 24.5391 142.34 24.5179 142.086 24.501C141.84 24.4756 141.616 24.4629 141.413 24.4629C140.897 24.4629 140.448 24.5306 140.067 24.666C139.695 24.793 139.382 24.9834 139.128 25.2373C138.882 25.4912 138.696 25.8001 138.569 26.1641C138.451 26.528 138.383 26.9427 138.366 27.4082L137.63 27.1797C137.63 26.291 137.719 25.4743 137.896 24.7295C138.074 23.9762 138.332 23.3203 138.671 22.7617C139.018 22.2031 139.441 21.7715 139.94 21.4668C140.44 21.1621 141.011 21.0098 141.654 21.0098C141.857 21.0098 142.065 21.0267 142.276 21.0605C142.488 21.0859 142.661 21.124 142.797 21.1748ZM148.18 15.4873V35H144.523V15.4873H148.18ZM156.838 21.2637L150.871 28.0684L147.672 31.3057L146.339 28.665L148.878 25.4404L152.445 21.2637H156.838ZM153.042 35L148.979 28.6523L151.506 26.4434L157.257 35H153.042ZM166.537 31.7119V21.2637H170.193V35H166.753L166.537 31.7119ZM166.943 28.8936L168.022 28.8682C168.022 29.7822 167.917 30.6328 167.705 31.4199C167.493 32.1986 167.176 32.8757 166.753 33.4512C166.33 34.0182 165.797 34.4626 165.153 34.7842C164.51 35.0973 163.753 35.2539 162.881 35.2539C162.212 35.2539 161.594 35.1608 161.027 34.9746C160.469 34.7799 159.986 34.4795 159.58 34.0732C159.182 33.6585 158.869 33.1296 158.641 32.4863C158.421 31.8346 158.311 31.0518 158.311 30.1377V21.2637H161.967V30.1631C161.967 30.5693 162.013 30.9121 162.106 31.1914C162.208 31.4707 162.348 31.6992 162.525 31.877C162.703 32.0547 162.91 32.1816 163.147 32.2578C163.393 32.334 163.664 32.3721 163.96 32.3721C164.713 32.3721 165.306 32.2197 165.737 31.915C166.177 31.6104 166.486 31.1956 166.664 30.6709C166.85 30.1377 166.943 29.5452 166.943 28.8936Z" class="color-2"/>
</svg>
